<svg width="97" height="99" viewBox="0 0 97 99" fill="none" xmlns="http://www.w3.org/2000/svg">
<g filter="url(#filter0_i_6877_1097)">
<path d="M6.98816e-06 8.00001C3.12871e-06 3.58173 3.58172 0 8 0H78.8254C79.4174 0 79.8804 0.509842 79.8236 1.09906C79.4574 4.89662 78.2525 17.8948 77.7066 29.9768C77.6285 31.704 79.94 32.4613 81.0483 31.1537C82.937 28.9256 85.0388 27.1931 87.0086 27.1931C92.5267 27.1931 97 33.2805 97 40.7897C97 48.2989 92.5267 54.3863 87.0086 54.3863C85.0453 54.3863 82.9509 52.6652 81.067 50.4477C79.9568 49.1408 77.6418 49.9011 77.7202 51.629C78.2784 63.928 79.4866 76.9716 79.8353 80.5962C79.888 81.1438 79.4953 81.6255 78.9481 81.6815C75.7326 82.0101 65.1176 83.055 54.3717 83.6681C52.9285 83.7504 52.2442 85.5898 52.8462 86.931C53.1289 87.5607 53.2876 88.188 53.2876 88.8026C53.2876 94.4344 47.3231 99 39.9657 99C32.6082 99 26.6438 94.4345 26.6438 88.8026C26.6438 88.1728 26.8103 87.5298 27.1062 86.8844C27.7195 85.547 27.0372 83.7042 25.5926 83.6214C14.6736 82.9954 3.99979 81.976 0.897909 81.6694C0.387484 81.6189 7.09204e-05 81.1893 7.04723e-05 80.6764L6.98816e-06 8.00001Z" fill="#131111" fill-opacity="0.1"/>
</g>
<path d="M8 0.125H78.8254C79.3436 0.125 79.7489 0.571286 79.6992 1.08706C79.3329 4.88509 78.1278 17.8858 77.5817 29.9712C77.5397 30.9007 78.1435 31.5654 78.8921 31.8216C79.6392 32.0772 80.551 31.9338 81.1437 31.2346C82.0843 30.1249 83.0742 29.1433 84.0701 28.44C85.0672 27.7359 86.0598 27.3181 87.0086 27.3181C89.7184 27.3181 92.1821 28.8125 93.9729 31.2495C95.7636 33.6864 96.875 37.059 96.875 40.7897C96.875 44.5204 95.7636 47.893 93.9729 50.3299C92.1821 52.7669 89.7184 54.2613 87.0086 54.2613C86.063 54.2613 85.0738 53.8462 84.08 53.1463C83.0873 52.4472 82.1005 51.4711 81.1623 50.3668C80.5686 49.6679 79.6554 49.5255 78.9073 49.7821C78.1577 50.0391 77.5531 50.7048 77.5953 51.6347C78.1537 63.9369 79.3621 76.983 79.7109 80.6082C79.757 81.0877 79.4138 81.5082 78.9354 81.5571C75.7205 81.8857 65.1077 82.9304 54.3645 83.5433C53.5842 83.5878 53.0172 84.1084 52.7273 84.7778C52.438 85.4457 52.4159 86.2776 52.7322 86.9822C53.0094 87.5999 53.1626 88.2096 53.1626 88.8026C53.1626 91.5714 51.6967 94.0868 49.3097 95.914C46.9226 97.7412 43.6194 98.875 39.9657 98.875C36.312 98.875 33.0088 97.7412 30.6216 95.914C28.2346 94.0868 26.7688 91.5714 26.7688 88.8026C26.7688 88.195 26.9295 87.5698 27.2199 86.9365C27.5422 86.2336 27.5234 85.4016 27.2359 84.733C26.9478 84.0631 26.3808 83.5414 25.5998 83.4966C14.6834 82.8707 4.0115 81.8516 0.910206 81.545C0.464063 81.5009 0.125071 81.1253 0.12507 80.6764L0.125007 8.00001C0.125003 3.65076 3.65075 0.125 8 0.125Z" stroke="#ABABAB" stroke-width="0.25"/>
<defs>
<filter id="filter0_i_6877_1097" x="-0.999992" y="-1" width="98" height="100" filterUnits="userSpaceOnUse" color-interpolation-filters="sRGB">
<feFlood flood-opacity="0" result="BackgroundImageFix"/>
<feBlend mode="normal" in="SourceGraphic" in2="BackgroundImageFix" result="shape"/>
<feColorMatrix in="SourceAlpha" type="matrix" values="0 0 0 0 0 0 0 0 0 0 0 0 0 0 0 0 0 0 127 0" result="hardAlpha"/>
<feOffset dx="-1" dy="-1"/>
<feGaussianBlur stdDeviation="1"/>
<feComposite in2="hardAlpha" operator="arithmetic" k2="-1" k3="1"/>
<feColorMatrix type="matrix" values="0 0 0 0 0 0 0 0 0 0 0 0 0 0 0 0 0 0 0.95 0"/>
<feBlend mode="normal" in2="shape" result="effect1_innerShadow_6877_1097"/>
</filter>
</defs>
</svg>
