<svg width="97" height="102" viewBox="0 0 97 102" fill="none" xmlns="http://www.w3.org/2000/svg">
<g filter="url(#filter0_i_6877_1102)">
<path d="M71.4074 15.489C82.3278 16.1197 93.0031 17.1465 96.1034 17.4552C96.6133 17.506 97 17.9351 97 18.4475V98.8109C97 99.3226 96.6228 99.7505 96.1137 99.802C92.6735 100.15 79.7939 101.406 67.6547 101.984C65.9617 102.065 65.2167 99.6849 66.4972 98.5436C68.6699 96.6072 70.3562 94.4541 70.3562 92.436C70.3562 86.7637 64.3918 82.1654 57.0343 82.1654C49.6769 82.1654 43.7124 86.7637 43.7124 92.436C43.7124 94.4608 45.4099 96.6214 47.593 98.5629C48.8742 99.7022 48.1321 102.078 46.4399 101.998C32.4522 101.335 17.2113 99.7262 17.0697 99.7112V99.7112C17.0691 99.7111 17.0686 99.7106 17.0686 99.71L17.0684 99.7086C17.0477 99.5037 15.7361 86.5654 15.0222 73.437C14.9415 71.9536 13.1392 71.2501 11.8252 71.8689C11.2081 72.1595 10.5936 72.3226 9.99142 72.3226C4.47331 72.3226 0 66.1915 0 58.6284C0 51.0653 4.47331 44.9342 9.99142 44.9342C10.6085 44.9342 11.2385 45.1054 11.8708 45.4096C13.1813 46.0399 14.9867 45.3386 15.0679 43.8536C15.6893 32.4833 16.7061 21.3715 16.9919 18.3481C17.0364 17.8764 17.3995 17.5104 17.8708 17.4616C20.85 17.1535 31.6712 16.0717 42.6283 15.442C44.0715 15.3591 44.7558 13.5065 44.1538 12.1557C43.8711 11.5214 43.7124 10.8897 43.7124 10.2707C43.7124 4.59833 49.6769 0 57.0343 0C64.3918 0 70.3562 4.59833 70.3562 10.2707C70.3562 10.905 70.1896 11.5526 69.8937 12.2026C69.2805 13.5497 69.9628 15.4056 71.4074 15.489Z" fill="#131111" fill-opacity="0.1"/>
</g>
<path d="M46.4458 101.873C33.0611 101.239 18.5275 99.738 17.1829 99.5974C17.0586 98.361 15.8296 85.9823 15.147 73.4303C15.1036 72.6328 14.5961 72.0499 13.9379 71.7508C13.2818 71.4527 12.4642 71.4298 11.7719 71.7559C11.1672 72.0407 10.5709 72.1976 9.99142 72.1976C7.28203 72.1976 4.81836 70.6927 3.0274 68.238C1.23651 65.7834 0.125 62.3863 0.125 58.6284C0.125 54.8705 1.23651 51.4734 3.0274 49.0188C4.81836 46.5641 7.28203 45.0592 9.99142 45.0592C10.5852 45.0592 11.1966 45.224 11.8166 45.5222C12.5073 45.8544 13.325 45.8351 13.9818 45.5388C14.6406 45.2415 15.1491 44.6587 15.1927 43.8605C15.814 32.4926 16.8306 21.3827 17.1163 18.3598C17.1553 17.9476 17.4716 17.6286 17.8836 17.586C20.8622 17.2779 31.6812 16.1963 42.6355 15.5668C43.4163 15.522 43.9831 14.9974 44.2728 14.3237C44.5619 13.6513 44.5841 12.8141 44.268 12.1048C43.9906 11.4825 43.8374 10.8682 43.8374 10.2707C43.8374 4.69565 49.7137 0.125 57.0343 0.125C64.3549 0.125 70.2312 4.69565 70.2312 10.2707C70.2312 10.883 70.0704 11.5128 69.78 12.1508C69.4579 12.8584 69.4766 13.6958 69.7639 14.3688C70.0519 15.0431 70.6187 15.5687 71.4002 15.6138C82.3181 16.2443 92.9913 17.271 96.091 17.5796C96.5366 17.624 96.875 17.9991 96.875 18.4475V98.8109C96.875 99.2601 96.5447 99.6328 96.1011 99.6777C92.6614 100.026 79.7845 101.281 67.6487 101.859C66.8723 101.896 66.3047 101.372 66.0797 100.683C65.8543 99.9936 65.9841 99.1684 66.5804 98.6369C67.6711 97.6648 68.6441 96.6345 69.3453 95.5901C70.0458 94.5466 70.4812 93.4794 70.4812 92.436C70.4812 86.6664 64.4287 82.0404 57.0343 82.0404C49.64 82.0404 43.5874 86.6664 43.5874 92.436C43.5874 93.4829 44.0258 94.5537 44.7304 95.6005C45.4356 96.6483 46.414 97.6817 47.51 98.6563C48.1066 99.1869 48.2372 100.011 48.0126 100.699C47.7885 101.386 47.2219 101.91 46.4458 101.873ZM17.082 99.5868C17.0826 99.5869 17.0833 99.5869 17.084 99.587C17.0836 99.587 17.0832 99.5869 17.0828 99.5869L17.0699 99.7085L17.082 99.5868Z" stroke="#ABABAB" stroke-width="0.25"/>
<defs>
<filter id="filter0_i_6877_1102" x="-1" y="-1" width="98" height="103" filterUnits="userSpaceOnUse" color-interpolation-filters="sRGB">
<feFlood flood-opacity="0" result="BackgroundImageFix"/>
<feBlend mode="normal" in="SourceGraphic" in2="BackgroundImageFix" result="shape"/>
<feColorMatrix in="SourceAlpha" type="matrix" values="0 0 0 0 0 0 0 0 0 0 0 0 0 0 0 0 0 0 127 0" result="hardAlpha"/>
<feOffset dx="-1" dy="-1"/>
<feGaussianBlur stdDeviation="1"/>
<feComposite in2="hardAlpha" operator="arithmetic" k2="-1" k3="1"/>
<feColorMatrix type="matrix" values="0 0 0 0 0 0 0 0 0 0 0 0 0 0 0 0 0 0 0.95 0"/>
<feBlend mode="normal" in2="shape" result="effect1_innerShadow_6877_1102"/>
</filter>
</defs>
</svg>
