<svg width="80" height="99" viewBox="0 0 80 99" fill="none" xmlns="http://www.w3.org/2000/svg">
<g filter="url(#filter0_i_6877_1098)">
<path d="M50.6295 19.6773C62.541 19.1147 75.1647 17.905 78.8996 17.5322C79.4901 17.4733 80 17.9371 80 18.5305L80 91C80 95.4183 76.4183 99 72 99H1.10349C0.512408 99 0.049134 98.4978 0.104795 97.9093C0.424061 94.534 1.39939 83.8275 2.00251 72.8797C2.08374 71.4054 3.89076 70.709 5.20236 71.3349C5.83524 71.6369 6.46578 71.8069 7.08336 71.8069C12.6062 71.8069 17.0834 65.7195 17.0834 58.2103C17.0834 50.7011 12.6062 44.6137 7.08336 44.6137C6.48063 44.6137 5.86555 44.7757 5.248 45.0642C3.93282 45.6786 2.12901 44.9802 2.04826 43.5073C1.45975 32.7715 0.465501 22.1637 0.121456 18.6422C0.0597238 18.0103 0.584963 17.4812 1.21669 17.5445C5.10967 17.934 17.6915 19.1407 29.3965 19.6912C31.0902 19.7709 31.8328 17.4118 30.5506 16.2806C28.3656 14.353 26.6667 12.2078 26.6667 10.1974C26.6667 4.56554 32.6362 0 40 0C47.3638 0 53.3333 4.56555 53.3333 10.1974C53.3333 12.2011 51.6456 14.3388 49.471 16.2615C48.1894 17.3946 48.935 19.7574 50.6295 19.6773Z" fill="#131111" fill-opacity="0.1"/>
</g>
<path d="M50.6354 19.8022C62.5502 19.2394 75.1766 18.0294 78.912 17.6566C79.4285 17.6051 79.875 18.0107 79.875 18.5305L79.875 91C79.875 95.3492 76.3492 98.875 72 98.875H1.10349C0.585021 98.875 0.180618 98.4351 0.229239 97.9211C0.54856 94.5452 1.52407 83.8368 2.12732 72.8866C2.16484 72.2057 2.59947 71.6991 3.19212 71.4338C3.78673 71.1676 4.52795 71.1516 5.14852 71.4477C5.79369 71.7555 6.44272 71.9319 7.08336 71.9319C9.894 71.9319 12.4282 70.3826 14.2551 67.8986C16.0821 65.4145 17.2084 61.9888 17.2084 58.2103C17.2084 54.4319 16.0821 51.0061 14.2551 48.522C12.4282 46.038 9.894 44.4887 7.08336 44.4887C6.45812 44.4887 5.82489 44.6567 5.19509 44.9509C4.57258 45.2418 3.83098 45.2224 3.23659 44.9545C2.64416 44.6875 2.21037 44.1806 2.17308 43.5004C1.58442 32.762 0.589969 22.1522 0.245864 18.63C0.19172 18.0758 0.651807 17.6136 1.20425 17.6688C5.09772 18.0584 17.6822 19.2654 29.3906 19.8161C30.3068 19.8592 30.9581 19.2399 31.2082 18.479C31.458 17.7194 31.3186 16.7914 30.6333 16.1868C29.5452 15.2269 28.5825 14.2165 27.8927 13.1999C27.2022 12.1822 26.7917 11.1679 26.7917 10.1974C26.7917 7.4286 28.2588 4.91323 30.6478 3.08604C33.037 1.25877 36.3431 0.125 40 0.125C43.6569 0.125 46.9629 1.25878 49.3521 3.08605C51.7412 4.91323 53.2083 7.42861 53.2083 10.1974C53.2083 11.1647 52.8005 12.1755 52.1141 13.1898C51.4284 14.2031 50.4711 15.2104 49.3882 16.1678C48.7032 16.7735 48.5649 17.7029 48.8155 18.4635C49.0665 19.2253 49.7187 19.8455 50.6354 19.8022Z" stroke="#ABABAB" stroke-width="0.25"/>
<defs>
<filter id="filter0_i_6877_1098" x="-0.89975" y="-1" width="80.8997" height="100" filterUnits="userSpaceOnUse" color-interpolation-filters="sRGB">
<feFlood flood-opacity="0" result="BackgroundImageFix"/>
<feBlend mode="normal" in="SourceGraphic" in2="BackgroundImageFix" result="shape"/>
<feColorMatrix in="SourceAlpha" type="matrix" values="0 0 0 0 0 0 0 0 0 0 0 0 0 0 0 0 0 0 127 0" result="hardAlpha"/>
<feOffset dx="-1" dy="-1"/>
<feGaussianBlur stdDeviation="1"/>
<feComposite in2="hardAlpha" operator="arithmetic" k2="-1" k3="1"/>
<feColorMatrix type="matrix" values="0 0 0 0 0 0 0 0 0 0 0 0 0 0 0 0 0 0 0.95 0"/>
<feBlend mode="normal" in2="shape" result="effect1_innerShadow_6877_1098"/>
</filter>
</defs>
</svg>
