<svg width="82" height="100" viewBox="0 0 82 100" fill="none" xmlns="http://www.w3.org/2000/svg">
<g filter="url(#filter0_i_6877_1105)">
<path d="M0.000186253 1.10943C0.000187612 0.516215 0.50615 0.0521309 1.09645 0.110901C4.42983 0.442773 14.8693 1.44325 25.5434 2.06265C26.9852 2.14632 27.6661 4.00763 27.0541 5.35862C26.7588 6.01054 26.5925 6.66002 26.5925 7.29614C26.5925 12.9849 32.5455 17.5966 39.8888 17.5966C47.2321 17.5966 53.1851 12.9849 53.1851 7.29614C53.1851 6.67531 53.0267 6.04176 52.7446 5.40565C52.1437 4.05096 52.8267 2.19294 54.2671 2.10977C64.9748 1.49151 75.5521 0.438533 78.7803 0.10473C79.3331 0.0475765 79.8211 0.444547 79.8737 0.997732C80.2224 4.66553 81.4276 17.8349 81.9845 30.2529C82.0628 31.9983 79.7522 32.7663 78.6441 31.4461C76.7639 29.2063 74.6734 27.4678 72.714 27.4678C67.2065 27.4678 62.7418 33.6167 62.7418 41.2017C62.7418 48.7867 67.2065 54.9356 72.714 54.9356C74.6799 54.9356 76.7777 53.1856 78.6628 50.935C79.769 49.6142 82.076 50.3792 81.9981 52.1238C81.4476 64.4532 80.2259 77.7271 79.8741 81.4085C79.8213 81.9608 79.3331 82.3566 78.7811 82.3004C75.171 81.9326 62.3626 80.6768 50.4628 80.1099C48.7739 80.0294 48.0333 82.4123 49.3119 83.555C51.4908 85.502 53.1851 87.6689 53.1851 89.6996C53.1851 95.3883 47.2321 100 39.8888 100C32.5455 100 26.5925 95.3883 26.5925 89.6996C26.5925 87.6756 28.2756 85.5164 30.4441 83.5743C31.7222 82.4297 30.9786 80.043 29.2889 80.1239C17.4149 80.692 4.83114 81.9133 1.10146 82.2903C0.510549 82.35 1.18562e-06 81.8859 2.54635e-06 81.292L0.000186253 1.10943Z" fill="#131111" fill-opacity="0.1"/>
</g>
<path d="M1.08406 0.235286C4.41805 0.567219 14.8595 1.56789 25.5361 2.18744C26.1975 2.22582 26.6932 2.67093 26.9539 3.28428C27.2151 3.8989 27.2309 4.66546 26.9403 5.30704C26.6395 5.97098 26.4675 6.63815 26.4675 7.29614C26.4675 13.0818 32.508 17.7216 39.8888 17.7216C47.2696 17.7216 53.3101 13.0817 53.3101 7.29614C53.3101 6.65397 53.1463 6.00305 52.8588 5.35497C52.5734 4.71136 52.5924 3.94443 52.8553 3.33007C53.1177 2.71695 53.6136 2.27271 54.2743 2.23456C64.9848 1.61614 75.5643 0.562936 78.7932 0.229067C79.2774 0.179 79.7033 0.526036 79.7493 1.00956C80.0979 4.67687 81.3029 17.8438 81.8596 30.2585C81.8959 31.0663 81.3821 31.6506 80.7182 31.881C80.0528 32.1119 79.2554 31.98 78.7398 31.3658C77.796 30.2414 76.7957 29.2382 75.7813 28.5152C74.7681 27.793 73.7302 27.3428 72.714 27.3428C69.9103 27.3428 67.383 28.9082 65.5614 31.4169C63.7397 33.9259 62.6168 37.3857 62.6168 41.2017C62.6168 45.0177 63.7397 48.4776 65.5614 50.9865C67.383 53.4953 69.9103 55.0606 72.714 55.0606C73.7335 55.0606 74.7749 54.6074 75.7914 53.881C76.809 53.1537 77.8124 52.145 78.7586 51.0153C79.2733 50.4007 80.0694 50.268 80.7336 50.498C81.3962 50.7275 81.9093 51.3108 81.8732 52.1182C81.3228 64.4444 80.1014 77.7157 79.7497 81.3966C79.7036 81.8791 79.2776 82.2253 78.7938 82.176C75.1832 81.8082 62.372 80.5521 50.4688 79.985C49.5539 79.9414 48.9047 80.5678 48.6556 81.3352C48.4069 82.1014 48.5455 83.0378 49.2286 83.6482C50.3137 84.6178 51.2738 85.6384 51.9617 86.6655C52.6503 87.6935 53.0601 88.7185 53.0601 89.6996C53.0601 95.2915 47.1947 99.875 39.8888 99.875C32.5829 99.875 26.7175 95.2915 26.7175 89.6996C26.7175 88.7218 27.1246 87.7003 27.8091 86.6757C28.493 85.6519 29.4476 84.6345 30.5275 83.6674C31.2103 83.0559 31.3479 82.1181 31.0983 81.3509C30.8484 80.5825 30.1983 79.9552 29.2829 79.999C17.4055 80.5673 4.8191 81.7889 1.08889 82.1659C0.572028 82.2181 0.125001 81.8124 0.125003 81.292L0.125186 1.10943C0.125187 0.589127 0.568344 0.183941 1.08406 0.235286Z" stroke="#ABABAB" stroke-width="0.25"/>
<defs>
<filter id="filter0_i_6877_1105" x="-0.999996" y="-0.900742" width="83" height="100.901" filterUnits="userSpaceOnUse" color-interpolation-filters="sRGB">
<feFlood flood-opacity="0" result="BackgroundImageFix"/>
<feBlend mode="normal" in="SourceGraphic" in2="BackgroundImageFix" result="shape"/>
<feColorMatrix in="SourceAlpha" type="matrix" values="0 0 0 0 0 0 0 0 0 0 0 0 0 0 0 0 0 0 127 0" result="hardAlpha"/>
<feOffset dx="-1" dy="-1"/>
<feGaussianBlur stdDeviation="1"/>
<feComposite in2="hardAlpha" operator="arithmetic" k2="-1" k3="1"/>
<feColorMatrix type="matrix" values="0 0 0 0 0 0 0 0 0 0 0 0 0 0 0 0 0 0 0.95 0"/>
<feBlend mode="normal" in2="shape" result="effect1_innerShadow_6877_1105"/>
</filter>
</defs>
</svg>
