<svg width="97" height="84" viewBox="0 0 97 84" fill="none" xmlns="http://www.w3.org/2000/svg">
<g filter="url(#filter0_i_6877_1101)">
<path d="M8 84C3.58172 84 0 80.4183 0 76V3.17733C0 2.66537 0.377523 2.23733 0.886907 2.18609C4.32791 1.83996 17.2067 0.590766 29.3453 0.0158828C31.0383 -0.0643019 31.7833 2.30261 30.5028 3.43778C28.3301 5.36384 26.6438 7.50527 26.6438 9.51253C26.6438 15.1543 32.6082 19.728 39.9657 19.728C47.3231 19.728 53.2876 15.1543 53.2876 9.51253C53.2876 7.49861 51.5901 5.34964 49.407 3.41863C48.1258 2.28544 48.8678 -0.077824 50.5601 0.001971C62.4979 0.564888 75.3485 1.81283 78.9467 2.17577C79.4944 2.23102 79.8878 2.7123 79.8349 3.26028C79.4829 6.90698 78.2583 20.0753 77.7066 32.3064C77.6285 34.0365 79.94 34.7952 81.0483 33.4853C82.937 31.2533 85.0388 29.5177 87.0086 29.5177C92.5267 29.5177 97 35.6159 97 43.1383C97 50.6607 92.5267 56.7589 87.0086 56.7589C85.0453 56.7589 82.9509 55.0348 81.067 52.8134C79.9568 51.5041 77.6418 52.2658 77.7202 53.9968C78.2727 66.1928 79.4622 79.1198 79.8245 82.9021C79.8809 83.4911 79.4178 84 78.8261 84H8Z" fill="#131111" fill-opacity="0.1"/>
</g>
<path d="M0.125 76V3.17733C0.125 2.72787 0.455574 2.35511 0.899417 2.31047C4.33992 1.96439 17.2161 0.715464 29.3512 0.140743C30.1281 0.103948 30.6955 0.625845 30.9204 1.3101C31.1456 1.99557 31.016 2.81575 30.4198 3.34424C29.3291 4.31116 28.3561 5.3359 27.6549 6.37478C26.9544 7.41272 26.5188 8.47438 26.5188 9.51253C26.5188 12.3804 28.035 14.9682 30.4696 16.8351C32.9041 18.7019 36.2618 19.853 39.9657 19.853C43.6695 19.853 47.0273 18.7019 49.4617 16.8351C51.8963 14.9682 53.4126 12.3804 53.4126 9.51253C53.4126 8.47094 52.9741 7.40569 52.2694 6.36443C51.5642 5.32223 50.5857 4.29439 49.4898 3.32501C48.8933 2.79742 48.7629 1.97863 48.9873 1.29438C49.2112 0.611358 49.7776 0.0902147 50.5542 0.126832C62.4885 0.689586 75.3364 1.93725 78.9341 2.30014C79.4131 2.34845 79.7568 2.76855 79.7105 3.24826C79.3584 6.89542 78.1336 20.0663 77.5817 32.3007C77.5397 33.2316 78.1433 33.8975 78.892 34.1541C79.6392 34.4102 80.5511 34.2665 81.1438 33.5661C82.0844 32.4544 83.0743 31.4711 84.0702 30.7666C85.0673 30.0612 86.0599 29.6427 87.0086 29.6427C89.7183 29.6427 92.182 31.1397 93.9728 33.581C95.7636 36.0223 96.875 39.4009 96.875 43.1383C96.875 46.8757 95.7636 50.2543 93.9728 52.6956C92.182 55.1369 89.7183 56.6339 87.0086 56.6339C86.0631 56.6339 85.0739 56.2181 84.0801 55.517C83.0874 54.8166 82.1006 53.8388 81.1624 52.7325C80.5686 52.0324 79.6554 51.8897 78.9072 52.1468C78.1576 52.4043 77.5531 53.0711 77.5953 54.0024C78.148 66.2017 79.3377 79.1312 79.7 82.914C79.7494 83.4295 79.3442 83.875 78.8261 83.875H8C3.65076 83.875 0.125 80.3492 0.125 76Z" stroke="#ABABAB" stroke-width="0.25"/>
<defs>
<filter id="filter0_i_6877_1101" x="-1" y="-1" width="98" height="85" filterUnits="userSpaceOnUse" color-interpolation-filters="sRGB">
<feFlood flood-opacity="0" result="BackgroundImageFix"/>
<feBlend mode="normal" in="SourceGraphic" in2="BackgroundImageFix" result="shape"/>
<feColorMatrix in="SourceAlpha" type="matrix" values="0 0 0 0 0 0 0 0 0 0 0 0 0 0 0 0 0 0 127 0" result="hardAlpha"/>
<feOffset dx="-1" dy="-1"/>
<feGaussianBlur stdDeviation="1"/>
<feComposite in2="hardAlpha" operator="arithmetic" k2="-1" k3="1"/>
<feColorMatrix type="matrix" values="0 0 0 0 0 0 0 0 0 0 0 0 0 0 0 0 0 0 0.95 0"/>
<feBlend mode="normal" in2="shape" result="effect1_innerShadow_6877_1101"/>
</filter>
</defs>
</svg>
