<svg width="99" height="82" viewBox="0 0 99 82" fill="none" xmlns="http://www.w3.org/2000/svg">
<g filter="url(#filter0_i_6877_1109)">
<path d="M0.0154991 51.8952C0.57197 64.2477 1.77591 77.3474 2.12494 81.003C2.17772 81.5558 2.66526 81.9527 3.21765 81.8959C6.44383 81.5638 17.0183 80.5158 27.7229 79.9006C29.1627 79.8178 29.8455 77.9689 29.2449 76.6208C28.9628 75.9878 28.8045 75.3574 28.8045 74.7396C28.8045 69.0787 34.7553 64.4896 42.096 64.4896C49.4366 64.4896 55.3874 69.0787 55.3874 74.7396C55.3874 75.3726 55.2212 76.0189 54.926 76.6676C54.3142 78.012 54.9949 79.8642 56.4362 79.9474C66.9814 80.5566 77.2974 81.5361 80.7543 81.8778C81.3842 81.94 81.913 81.4181 81.8532 80.7879C81.4798 76.8574 80.3103 64.0166 79.7642 51.8952C79.686 50.1584 81.9957 49.3941 83.1034 50.7078C84.983 52.9367 87.0727 54.6667 89.0314 54.6667C94.5369 54.6667 99 48.5479 99 41C99 33.4521 94.5369 27.3333 89.0314 27.3333C87.0662 27.3333 84.9691 29.0748 83.0848 31.3144C81.979 32.6287 79.6728 31.8674 79.7507 30.1314C80.2957 17.9807 81.4987 4.90831 81.8634 1.0988C81.9198 0.509834 81.4569 0 80.8652 0H3.12649C2.61278 0 2.18386 0.379527 2.13466 0.890879C1.79611 4.409 0.557334 17.7488 0.00192337 30.1314C-0.0759436 31.8674 2.23022 32.6287 3.33604 31.3144C5.22038 29.0748 7.31743 27.3333 9.28268 27.3333C14.7882 27.3333 19.2513 33.4521 19.2513 41C19.2513 48.5479 14.7882 54.6667 9.28268 54.6667C7.32392 54.6667 5.23423 52.9367 3.35471 50.7078C2.24697 49.3941 -0.0627481 50.1584 0.0154991 51.8952Z" fill="#131111" fill-opacity="0.1"/>
</g>
<path d="M2.24937 80.9911C1.90039 77.336 0.696697 64.2388 0.140372 51.8896C0.104192 51.0865 0.617292 50.5051 1.28118 50.2757C1.94654 50.0458 2.74381 50.1772 3.25915 50.7884C4.20262 51.9072 5.20263 52.9056 6.21665 53.625C7.22956 54.3437 8.267 54.7917 9.28268 54.7917C12.0851 54.7917 14.6114 53.2341 16.4325 50.7375C18.2537 48.2407 19.3763 44.7976 19.3763 41C19.3763 37.2024 18.2537 33.7593 16.4325 31.2625C14.6114 28.7659 12.0851 27.2083 9.28268 27.2083C8.26364 27.2083 7.22269 27.6592 6.20656 28.3821C5.18929 29.1058 4.18625 30.1097 3.24039 31.2339C2.72591 31.8454 1.93 31.9775 1.26583 31.7486C0.603157 31.5202 0.0907913 30.9398 0.126798 30.137C0.682059 17.7578 1.92058 4.42053 2.25908 0.902852C2.30195 0.457352 2.6754 0.125 3.12649 0.125H80.8652C81.3831 0.125 81.7884 0.571256 81.739 1.08689C81.3742 4.89687 80.1709 17.9719 79.6258 30.1258C79.5839 31.0591 80.1857 31.7273 80.9331 31.9849C81.679 32.242 82.5891 32.0977 83.1804 31.3948C84.1189 30.2794 85.1065 29.2928 86.1002 28.5858C87.095 27.8781 88.0852 27.4583 89.0314 27.4583C91.7345 27.4583 94.1924 28.9602 95.9793 31.4099C97.766 33.8595 98.875 37.2497 98.875 41C98.875 44.7503 97.766 48.1405 95.9793 50.5901C94.1924 53.0398 91.7345 54.5417 89.0314 54.5417C88.0883 54.5417 87.1016 54.1246 86.11 53.4211C85.1197 52.7184 84.1351 51.7373 83.199 50.6272C82.6066 49.9247 81.6951 49.7814 80.9483 50.0394C80.1999 50.298 79.5973 50.9671 79.6394 51.9008C80.1856 64.0254 81.3553 76.8687 81.7287 80.7998C81.7811 81.3508 81.319 81.808 80.7666 81.7534C77.3091 81.4117 66.9911 80.4319 56.4434 79.8227C55.782 79.7845 55.2866 79.3414 55.0262 78.7314C54.7652 78.12 54.7494 77.3576 55.0398 76.7194C55.3405 76.0586 55.5124 75.3946 55.5124 74.7396C55.5124 68.9814 49.4735 64.3646 42.096 64.3646C34.7184 64.3646 28.6795 68.9814 28.6795 74.7396C28.6795 75.3788 28.8433 76.0267 29.1307 76.6717C29.4159 77.3119 29.3969 78.0747 29.1342 78.6858C28.8721 79.2956 28.3764 79.7378 27.7157 79.7758C17.0083 80.3912 6.43166 81.4394 3.20485 81.7715C2.72102 81.8213 2.29551 81.4744 2.24937 80.9911Z" stroke="#ABABAB" stroke-width="0.25"/>
<defs>
<filter id="filter0_i_6877_1109" x="-1" y="-1" width="100" height="82.9013" filterUnits="userSpaceOnUse" color-interpolation-filters="sRGB">
<feFlood flood-opacity="0" result="BackgroundImageFix"/>
<feBlend mode="normal" in="SourceGraphic" in2="BackgroundImageFix" result="shape"/>
<feColorMatrix in="SourceAlpha" type="matrix" values="0 0 0 0 0 0 0 0 0 0 0 0 0 0 0 0 0 0 127 0" result="hardAlpha"/>
<feOffset dx="-1" dy="-1"/>
<feGaussianBlur stdDeviation="1"/>
<feComposite in2="hardAlpha" operator="arithmetic" k2="-1" k3="1"/>
<feColorMatrix type="matrix" values="0 0 0 0 0 0 0 0 0 0 0 0 0 0 0 0 0 0 0.95 0"/>
<feBlend mode="normal" in2="shape" result="effect1_innerShadow_6877_1109"/>
</filter>
</defs>
</svg>
