<svg width="100" height="102" viewBox="0 0 100 102" fill="none" xmlns="http://www.w3.org/2000/svg">
<g filter="url(#filter0_i_6877_1104)">
<path d="M99.9843 47.7112C99.4117 35.1024 98.1604 21.7165 97.8347 18.3492C97.789 17.8767 97.4227 17.5117 96.9503 17.4649C93.9588 17.1686 83.0876 16.1264 71.9639 15.489C70.5081 15.4056 69.8205 13.5497 70.4385 12.2026C70.7367 11.5526 70.9045 10.905 70.9045 10.2707C70.9045 4.59833 64.8936 0 57.4788 0C50.064 0 44.0531 4.59833 44.0531 10.2707C44.0531 10.8897 44.213 11.5214 44.4979 12.1557C45.1046 13.5065 44.415 15.3591 42.9606 15.442C32.1214 16.0601 21.4144 17.1138 18.1841 17.4438C17.6371 17.4997 17.245 17.9805 17.2977 18.5279C17.6481 22.1673 18.8671 35.3148 19.4301 47.7112C19.5091 49.4516 17.1761 50.2173 16.0571 48.901C14.1586 46.6676 12.0478 44.9342 10.0693 44.9342C4.50817 44.9342 0 51.0653 0 58.6284C0 66.1915 4.50817 72.3226 10.0693 72.3226C12.0544 72.3226 14.1726 70.5777 16.076 68.3336C17.193 67.0166 19.5224 67.7794 19.4438 69.5189C18.8875 81.8219 17.6525 95.0681 17.2983 98.7272C17.2453 99.2754 17.6384 99.7565 18.1863 99.8117C21.8019 100.176 34.7625 101.432 46.8019 101.998C48.5073 102.078 49.2551 99.7022 47.964 98.5629C45.7638 96.6214 44.0531 94.4608 44.0531 92.436C44.0531 86.7637 50.064 82.1654 57.4788 82.1654C64.8936 82.1654 70.9045 86.7637 70.9045 92.436C70.9045 94.4541 69.2051 96.6072 67.0155 98.5436C65.725 99.6849 66.4757 102.065 68.182 101.984C80.527 101.401 93.6318 100.127 96.9549 99.7928C97.4265 99.7453 97.7891 99.3808 97.835 98.9091C98.1637 95.5282 99.4321 82.0355 99.9981 69.5189C100.077 67.7794 97.7473 67.0166 96.6303 68.3336C94.7269 70.5777 92.6087 72.3226 90.6236 72.3226C85.0625 72.3226 80.5543 66.1915 80.5543 58.6284C80.5543 51.0653 85.0625 44.9342 90.6236 44.9342C92.6021 44.9342 94.7129 46.6676 96.6114 48.901C97.7303 50.2173 100.063 49.4516 99.9843 47.7112Z" fill="#131111" fill-opacity="0.1"/>
</g>
<path d="M97.7103 18.3613C98.036 21.7281 99.287 35.1113 99.8595 47.7169C99.896 48.5211 99.3781 49.104 98.7066 49.3341C98.0337 49.5647 97.2275 49.4328 96.7066 48.8201C95.7537 47.699 94.7436 46.6987 93.7194 45.9779C92.6964 45.2578 91.6488 44.8092 90.6236 44.8092C87.7938 44.8092 85.2423 46.3694 83.4028 48.8711C81.5633 51.3728 80.4293 54.823 80.4293 58.6284C80.4293 62.4338 81.5633 65.884 83.4028 68.3857C85.2423 70.8874 87.7938 72.4476 90.6236 72.4476C91.6522 72.4476 92.7033 71.9961 93.7296 71.2718C94.7571 70.5467 95.7702 69.5409 96.7256 68.4144C97.2456 67.8014 98.0504 67.6687 98.7221 67.8983C99.3923 68.1275 99.9095 68.7095 99.8732 69.5133C99.3074 82.0265 98.0392 95.5166 97.7106 98.897C97.6705 99.3095 97.3546 99.6269 96.9424 99.6684C93.6198 100.003 80.5177 101.276 68.1761 101.859C67.3924 101.896 66.8203 101.371 66.5937 100.683C66.3666 99.9937 66.4972 99.1688 67.0983 98.6373C68.1975 97.6651 69.1781 96.6349 69.8847 95.5905C70.5906 94.547 71.0295 93.4797 71.0295 92.436C71.0295 89.5528 69.5015 86.9511 67.0482 85.0743C64.5949 83.1976 61.2113 82.0404 57.4788 82.0404C53.7464 82.0404 50.3627 83.1976 47.9095 85.0743C45.4561 86.9511 43.9281 89.5527 43.9281 92.436C43.9281 93.4831 44.37 94.5541 45.0801 95.6009C45.7908 96.6487 46.7768 97.682 47.8813 98.6566C48.4826 99.1873 48.614 100.011 48.3879 100.699C48.1621 101.386 47.5911 101.91 46.8077 101.873C34.7718 101.307 21.814 100.051 18.1989 99.6873C17.7197 99.6391 17.3763 99.2192 17.4228 98.7393C17.777 95.0797 19.0122 81.8309 19.5687 69.5246C19.611 68.5889 19.0028 67.9196 18.2487 67.6618C17.4961 67.4045 16.5777 67.5488 15.9807 68.2527C15.0327 69.3704 14.035 70.3591 13.0312 71.0675C12.0263 71.7767 11.0257 72.1976 10.0693 72.1976C7.33797 72.1976 4.8548 70.6923 3.04993 68.2376C1.2451 65.7831 0.125 62.3861 0.125 58.6284C0.125 54.8707 1.2451 51.4737 3.04993 49.0192C4.8548 46.5645 7.33797 45.0592 10.0693 45.0592C11.0225 45.0592 12.0197 45.4773 13.0213 46.1823C14.0218 46.8865 15.0164 47.8697 15.9619 48.982C16.56 49.6856 17.4798 49.8289 18.2334 49.5706C18.9884 49.3118 19.5975 48.6417 19.5549 47.7056C18.9918 35.3058 17.7726 22.1558 17.4221 18.5159C17.376 18.0366 17.7186 17.617 18.1968 17.5682C21.4265 17.2382 32.1313 16.1847 42.9677 15.5668C43.7536 15.522 44.3248 14.998 44.6168 14.324C44.9083 13.6515 44.9306 12.8139 44.6119 12.1045C44.3324 11.4822 44.1781 10.8681 44.1781 10.2707C44.1781 7.48161 45.6556 4.94792 48.0614 3.10749C50.4673 1.26697 53.7964 0.125 57.4788 0.125C61.1612 0.125 64.4904 1.26697 66.8963 3.10749C69.3021 4.94792 70.7795 7.48161 70.7795 10.2707C70.7795 10.8828 70.6175 11.5125 70.3249 12.1505C70.0002 12.8582 70.019 13.696 70.3087 14.3691C70.599 15.0437 71.1701 15.5687 71.9568 15.6138C83.0779 16.2511 93.9471 17.2931 96.938 17.5893C97.3514 17.6302 97.6704 17.9485 97.7103 18.3613Z" stroke="#ABABAB" stroke-width="0.25"/>
<defs>
<filter id="filter0_i_6877_1104" x="-1" y="-1" width="101" height="103" filterUnits="userSpaceOnUse" color-interpolation-filters="sRGB">
<feFlood flood-opacity="0" result="BackgroundImageFix"/>
<feBlend mode="normal" in="SourceGraphic" in2="BackgroundImageFix" result="shape"/>
<feColorMatrix in="SourceAlpha" type="matrix" values="0 0 0 0 0 0 0 0 0 0 0 0 0 0 0 0 0 0 127 0" result="hardAlpha"/>
<feOffset dx="-1" dy="-1"/>
<feGaussianBlur stdDeviation="1"/>
<feComposite in2="hardAlpha" operator="arithmetic" k2="-1" k3="1"/>
<feColorMatrix type="matrix" values="0 0 0 0 0 0 0 0 0 0 0 0 0 0 0 0 0 0 0.95 0"/>
<feBlend mode="normal" in2="shape" result="effect1_innerShadow_6877_1104"/>
</filter>
</defs>
</svg>
