<svg width="99" height="85" viewBox="0 0 99 85" fill="none" xmlns="http://www.w3.org/2000/svg">
<g filter="url(#filter0_i_6882_1264)">
<path d="M2.13567 84.1079C2.18427 84.6198 2.61345 85 3.12765 85H81.0628C81.5776 85 82.008 84.6096 82.0559 84.097C82.3527 80.9218 83.3529 69.8494 83.9665 58.5221C84.0475 57.0276 85.8488 56.3217 87.1563 56.9561C87.7872 57.2622 88.4158 57.4346 89.0314 57.4346C94.5369 57.4346 99 51.2638 99 43.6519C99 36.0399 94.5369 29.8691 89.0314 29.8691C88.4306 29.8691 87.8174 30.0333 87.2018 30.3258C85.8908 30.9486 84.0926 30.2406 84.0121 28.7475C83.3991 17.3752 82.3444 6.14456 82.0491 3.10451C82.0034 2.6336 81.6418 2.26884 81.1712 2.22046C77.8557 1.87969 64.7892 0.581775 52.6662 0.00199446C50.9778 -0.0787505 50.2374 2.31264 51.5157 3.45933C53.6938 5.41333 55.3874 7.58788 55.3874 9.62577C55.3874 15.3348 49.4366 19.9628 42.0959 19.9628C34.7553 19.9628 28.8045 15.3348 28.8045 9.62577C28.8045 7.59462 30.4869 5.42769 32.6547 3.47871C33.9323 2.33002 33.189 -0.0650674 31.4999 0.0160719C19.2877 0.602667 6.3245 1.88307 3.02226 2.22072C2.5508 2.26892 2.18896 2.63421 2.14383 3.10597C1.81915 6.50044 0.562481 20.0874 0.00192337 32.691C-0.0759436 34.4417 2.23021 35.2094 3.33603 33.884C5.22038 31.6254 7.31742 29.8691 9.28268 29.8691C14.7882 29.8691 19.2513 36.0399 19.2513 43.6519C19.2513 51.2638 14.7882 57.4346 9.28267 57.4346C7.32391 57.4346 5.23422 55.6899 3.35471 53.4421C2.24697 52.1173 -0.0627481 52.888 0.0154864 54.6396C0.577824 67.2282 1.80134 80.5863 2.13567 84.1079Z" fill="#131111" fill-opacity="0.1"/>
</g>
<path d="M81.0628 84.875H3.12765C2.67613 84.875 2.30246 84.542 2.26011 84.096C1.92583 80.5749 0.702555 67.2194 0.140362 54.634C0.10413 53.8228 0.618053 53.2364 1.28149 53.0052C1.94639 52.7736 2.74336 52.9058 3.25882 53.5223C4.20224 54.6506 5.20223 55.6573 6.21623 56.3829C7.2291 57.1077 8.26668 57.5596 9.28267 57.5596C12.0856 57.5596 14.6119 55.9885 16.4328 53.471C18.2538 50.9532 19.3763 47.4812 19.3763 43.6519C19.3763 39.8225 18.2538 36.3505 16.4328 33.8327C14.6119 31.3152 12.0856 29.7441 9.28268 29.7441C8.26333 29.7441 7.22224 30.199 6.20615 30.928C5.1889 31.6578 4.18588 32.6702 3.24005 33.8039C2.72546 34.4207 1.92985 34.5537 1.26614 34.323C0.60392 34.0928 0.0907367 33.5074 0.1268 32.6965C0.68721 20.0963 1.94362 6.51191 2.26826 3.11787C2.30773 2.70525 2.62298 2.3872 3.03497 2.34507C6.33671 2.00748 19.2971 0.727356 31.5059 0.140928C32.2796 0.103761 32.8461 0.630995 33.0709 1.32474C33.296 2.01953 33.1663 2.85064 32.5711 3.38575C31.4828 4.36419 30.5121 5.40107 29.8126 6.45218C29.1137 7.5024 28.6795 8.57616 28.6795 9.62577C28.6795 15.4312 34.7173 20.0878 42.0959 20.0878C49.4746 20.0878 55.5124 15.4312 55.5124 9.62577C55.5124 8.57269 55.0753 7.49529 54.3723 6.44171C53.6687 5.38724 52.6926 4.34721 51.5991 3.36629C51.0037 2.83209 50.8732 2.0024 51.0974 1.30883C51.3213 0.616335 51.8868 0.0898645 52.6602 0.126852C64.7797 0.706462 77.8434 2.00409 81.1584 2.34481C81.5697 2.38708 81.8847 2.7047 81.9247 3.11659C82.2199 6.15607 83.2744 17.3846 83.8873 28.7543C83.9305 29.556 84.4364 30.1426 85.0934 30.4437C85.7484 30.7439 86.5644 30.767 87.2555 30.4387C87.8587 30.152 88.4535 29.9941 89.0314 29.9941C91.734 29.9941 94.1919 31.5085 95.979 33.9793C97.7659 36.4499 98.875 39.8693 98.875 43.6519C98.875 47.4345 97.7659 50.8538 95.979 53.3244C94.1919 55.7952 91.734 57.3096 89.0314 57.3096C88.4392 57.3096 87.8294 57.1438 87.2109 56.8436C86.5215 56.5091 85.7052 56.5286 85.0497 56.827C84.392 57.1263 83.8852 57.7128 83.8417 58.5153C83.2282 69.8402 82.2281 80.9107 81.9314 84.0854C81.8896 84.5334 81.5134 84.875 81.0628 84.875Z" stroke="#ABABAB" stroke-width="0.25"/>
<defs>
<filter id="filter0_i_6882_1264" x="-1" y="-1" width="100" height="86" filterUnits="userSpaceOnUse" color-interpolation-filters="sRGB">
<feFlood flood-opacity="0" result="BackgroundImageFix"/>
<feBlend mode="normal" in="SourceGraphic" in2="BackgroundImageFix" result="shape"/>
<feColorMatrix in="SourceAlpha" type="matrix" values="0 0 0 0 0 0 0 0 0 0 0 0 0 0 0 0 0 0 127 0" result="hardAlpha"/>
<feOffset dx="-1" dy="-1"/>
<feGaussianBlur stdDeviation="1"/>
<feComposite in2="hardAlpha" operator="arithmetic" k2="-1" k3="1"/>
<feColorMatrix type="matrix" values="0 0 0 0 0 0 0 0 0 0 0 0 0 0 0 0 0 0 0.95 0"/>
<feBlend mode="normal" in2="shape" result="effect1_innerShadow_6882_1264"/>
</filter>
</defs>
</svg>
