<svg width="84" height="99" viewBox="0 0 84 99" fill="none" xmlns="http://www.w3.org/2000/svg">
<g filter="url(#filter0_i_6877_1107)">
<path d="M3.02281 81.6607C2.5504 81.6137 2.18366 81.2486 2.13819 80.776C1.81565 77.4236 0.58074 64.141 0.0154637 51.629C-0.0626051 49.9011 2.24185 49.1408 3.34707 50.4477C5.2223 52.6652 7.30723 54.3863 9.26152 54.3863C14.7545 54.3863 19.2074 48.2989 19.2074 40.7897C19.2074 33.2805 14.7545 27.1931 9.26152 27.1931C7.30076 27.1931 5.20848 28.9256 3.32843 31.1537C2.22514 32.4613 -0.0757705 31.704 0.00191898 29.9768C0.555828 17.6629 1.79099 4.39739 2.12937 0.890668C2.1787 0.379437 2.60756 0 3.12117 0H80.8784C81.3922 0 81.8212 0.379824 81.8703 0.891254C82.2054 4.38224 83.4241 17.5451 83.9845 29.9504C84.0626 31.6783 81.7582 32.4386 80.6529 31.1317C78.7777 28.9142 76.6928 27.1931 74.7385 27.1931C69.2455 27.1931 64.7926 33.2805 64.7926 40.7897C64.7926 48.2989 69.2455 54.3863 74.7385 54.3863C76.6992 54.3863 78.7915 52.6538 80.6716 50.4257C81.7749 49.1181 84.0758 49.8754 83.9981 51.6026C83.4393 64.0252 82.1871 77.4162 81.8619 80.7793C81.8163 81.2502 81.4521 81.6147 80.9815 81.6633C78.0112 81.9697 67.2435 83.0432 56.3403 83.6681C54.9038 83.7504 54.2225 85.5898 54.8218 86.931C55.1032 87.5607 55.2612 88.188 55.2612 88.8026C55.2612 94.4344 49.3239 99 42 99C34.6761 99 28.7388 94.4345 28.7388 88.8026C28.7388 88.1728 28.9047 87.5298 29.1992 86.8844C29.8096 85.547 29.1304 83.7042 27.6925 83.6214C16.7181 82.9893 5.99243 81.9563 3.02281 81.6607Z" fill="#131111" fill-opacity="0.1"/>
</g>
<path d="M2.26262 80.7641C1.94012 77.4121 0.705464 64.1321 0.140336 51.6234C0.104264 50.825 0.615814 50.2467 1.27825 50.0185C1.94216 49.7898 2.73757 49.9206 3.25162 50.5284C4.19295 51.6416 5.19071 52.6348 6.20245 53.3506C7.21309 54.0656 8.24818 54.5113 9.26152 54.5113C12.0575 54.5113 14.5782 52.9617 16.3952 50.4777C18.2123 47.9936 19.3324 44.568 19.3324 40.7897C19.3324 37.0114 18.2123 33.5858 16.3952 31.1017C14.5782 28.6177 12.0575 27.0681 9.26152 27.0681C8.24483 27.0681 7.20624 27.5167 6.19238 28.2359C5.17741 28.956 4.17662 29.9547 3.23289 31.0731C2.71972 31.6813 1.92566 31.8129 1.26294 31.5851C0.601713 31.3578 0.0908943 30.7805 0.126793 29.9825C0.680552 17.6719 1.91546 4.40895 2.25379 0.902674C2.29677 0.457271 2.67019 0.125 3.12117 0.125H80.8784C81.3295 0.125 81.703 0.457605 81.7458 0.903198C82.0809 4.3937 83.2994 17.554 83.8597 29.956C83.8957 30.7544 83.3842 31.3327 82.7217 31.5609C82.0578 31.7896 81.2624 31.6588 80.7484 31.051C79.807 29.9378 78.8093 28.9446 77.7975 28.2288C76.7869 27.5138 75.7518 27.0681 74.7385 27.0681C71.9425 27.0681 69.4218 28.6177 67.6048 31.1017C65.7877 33.5858 64.6676 37.0114 64.6676 40.7897C64.6676 44.568 65.7877 47.9936 67.6048 50.4777C69.4218 52.9617 71.9425 54.5113 74.7385 54.5113C75.7552 54.5113 76.7938 54.0627 77.8076 53.3435C78.8226 52.6234 79.8234 51.6247 80.7671 50.5063C81.2803 49.8981 82.0743 49.7665 82.7371 49.9943C83.3983 50.2216 83.9091 50.7989 83.8732 51.5969C83.3145 64.0162 82.0627 77.4046 81.7375 80.7673C81.6977 81.1786 81.3805 81.4965 80.9687 81.5389C77.999 81.8453 67.2335 82.9185 56.3332 83.5433C55.5558 83.5878 54.9913 84.1088 54.7028 84.778C54.4149 85.4458 54.3929 86.2775 54.7077 86.982C54.9837 87.5997 55.1362 88.2095 55.1362 88.8026C55.1362 91.5717 53.6768 94.0871 51.3009 95.9141C48.9247 97.7413 45.6368 98.875 42 98.875C38.3632 98.875 35.0753 97.7413 32.6991 95.9142C30.3231 94.0871 28.8638 91.5717 28.8638 88.8026C28.8638 88.1948 29.0239 87.5697 29.3129 86.9363C29.6337 86.2335 29.6151 85.4017 29.3289 84.7332C29.0421 84.0634 28.4777 83.5415 27.6996 83.4966C16.7278 82.8647 6.00422 81.8318 3.03519 81.5363C2.62169 81.4952 2.30232 81.1767 2.26262 80.7641Z" stroke="#ABABAB" stroke-width="0.25"/>
<defs>
<filter id="filter0_i_6877_1107" x="-1" y="-1" width="85" height="100" filterUnits="userSpaceOnUse" color-interpolation-filters="sRGB">
<feFlood flood-opacity="0" result="BackgroundImageFix"/>
<feBlend mode="normal" in="SourceGraphic" in2="BackgroundImageFix" result="shape"/>
<feColorMatrix in="SourceAlpha" type="matrix" values="0 0 0 0 0 0 0 0 0 0 0 0 0 0 0 0 0 0 127 0" result="hardAlpha"/>
<feOffset dx="-1" dy="-1"/>
<feGaussianBlur stdDeviation="1"/>
<feComposite in2="hardAlpha" operator="arithmetic" k2="-1" k3="1"/>
<feColorMatrix type="matrix" values="0 0 0 0 0 0 0 0 0 0 0 0 0 0 0 0 0 0 0.95 0"/>
<feBlend mode="normal" in2="shape" result="effect1_innerShadow_6877_1107"/>
</filter>
</defs>
</svg>
