<svg width="98" height="100" viewBox="0 0 98 100" fill="none" xmlns="http://www.w3.org/2000/svg">
<g filter="url(#filter0_i_6877_1103)">
<path d="M43.1011 2.06265C32.4068 1.4496 21.9453 0.463234 18.4605 0.121312C17.8304 0.0594885 17.3025 0.582234 17.3629 1.21248C17.7403 5.15579 18.9254 18.0662 19.4786 30.2529C19.5578 31.9983 17.2189 32.7663 16.0972 31.4462C14.194 29.2063 12.0779 27.4678 10.0944 27.4678C4.51943 27.4678 0 33.6167 0 41.2017C0 48.7868 4.51943 54.9356 10.0944 54.9356C12.0845 54.9356 14.208 53.1856 16.1161 50.935C17.2359 49.6143 19.5712 50.3792 19.4923 52.1238C18.8382 66.5972 17.2478 82.372 17.2446 82.4034C17.2446 82.4042 17.2453 82.4033 17.2461 82.4033V82.4033C17.4207 82.385 32.6603 80.7966 46.8925 80.1239C48.603 80.0431 49.3556 82.4297 48.0619 83.5743C45.8668 85.5164 44.1631 87.6756 44.1631 89.6996C44.1631 95.3883 50.189 100 57.6223 100C65.0556 100 71.0815 95.3883 71.0815 89.6996C71.0815 87.6689 69.3666 85.502 67.1609 83.555C65.8666 82.4124 66.6163 80.0294 68.3259 80.1099C82.445 80.7743 97.8278 82.3854 97.9986 82.4033V82.4033C97.9993 82.4033 98.0001 82.4039 98 82.4032C97.9914 82.3192 96.6571 69.2824 95.9324 56.0533C95.8509 54.5655 94.0301 53.86 92.7025 54.4806C92.0791 54.7721 91.4582 54.9356 90.8498 54.9356C85.2748 54.9356 80.7554 48.7868 80.7554 41.2017C80.7554 33.6167 85.2748 27.4678 90.8498 27.4678C91.4732 27.4678 92.1097 27.6396 92.7485 27.9446C94.0725 28.5768 95.8966 27.8734 95.9786 26.3841C96.5807 15.4482 97.5502 4.7508 97.8833 1.21789C97.9428 0.586676 97.4131 0.0620646 96.7823 0.126164C93.2876 0.481301 82.7954 1.50407 72.1768 2.10977C70.7188 2.19293 70.0274 4.05096 70.6356 5.40565C70.9213 6.04176 71.0815 6.67531 71.0815 7.29613C71.0815 12.9849 65.0556 17.5966 57.6223 17.5966C50.189 17.5966 44.1631 12.9849 44.1631 7.29613C44.1631 6.66001 44.3314 6.01053 44.6303 5.35863C45.2499 4.00763 44.5605 2.14632 43.1011 2.06265Z" fill="#131111" fill-opacity="0.1"/>
</g>
<path d="M18.4483 0.245715C21.9337 0.587696 32.3972 1.57425 43.0939 2.18745C43.7649 2.22591 44.2668 2.67191 44.5305 3.28479C44.7948 3.89912 44.8108 4.66524 44.5167 5.30652C44.2122 5.97052 44.0381 6.63787 44.0381 7.29613C44.0381 10.1876 45.5698 12.7967 48.0292 14.6789C50.4885 16.561 53.8806 17.7216 57.6223 17.7216C61.364 17.7216 64.7561 16.561 67.2154 14.6789C69.6748 12.7967 71.2065 10.1876 71.2065 7.29613C71.2065 6.65369 71.0407 6.0026 70.7497 5.35445C70.4609 4.71115 70.4801 3.94466 70.7461 3.33057C71.0115 2.71793 71.5137 2.2728 72.184 2.23456C82.8053 1.62872 93.2996 0.605725 96.7949 0.250523C97.3475 0.194367 97.8109 0.653573 97.7588 1.20616C97.4257 4.73965 96.456 15.4389 95.8538 26.3773C95.8159 27.0657 95.3767 27.5777 94.7782 27.8458C94.1777 28.1148 93.4292 28.1311 92.8024 27.8318C92.1512 27.5209 91.4963 27.3428 90.8498 27.3428C88.013 27.3428 85.4553 28.9075 83.6112 31.4164C81.7672 33.9253 80.6304 37.3854 80.6304 41.2017C80.6304 45.0181 81.7672 48.4781 83.6112 50.9871C85.4553 53.496 88.013 55.0606 90.8498 55.0606C91.4807 55.0606 92.1198 54.891 92.7554 54.5939C93.3841 54.3 94.133 54.3195 94.7333 54.5902C95.3316 54.8601 95.7699 55.3724 95.8076 56.0601C96.4889 68.4974 97.7088 80.764 97.8601 82.2632C96.222 82.0938 81.7103 80.6146 68.3318 79.985C67.4076 79.9415 66.7505 80.5667 66.4982 81.3348C66.2462 82.1016 66.3869 83.0384 67.0782 83.6487C68.1766 84.6183 69.1485 85.639 69.8449 86.6661C70.542 87.6941 70.9565 88.7189 70.9565 89.6996C70.9565 92.4969 69.4753 95.038 67.0635 96.8838C64.6515 98.7297 61.314 99.875 57.6223 99.875C53.9307 99.875 50.5932 98.7297 48.1812 96.8838C45.7693 95.038 44.2881 92.4969 44.2881 89.6996C44.2881 88.7222 44.6999 87.7009 45.3929 86.6762C46.0851 85.6525 47.0515 84.6351 48.1447 83.6679C48.8357 83.0565 48.9753 82.1183 48.7225 81.3504C48.4692 80.5814 47.8113 79.9553 46.8866 79.999C33.4016 80.6364 19.0135 82.0956 17.3843 82.2633C17.5487 80.6084 18.9998 65.7899 19.6172 52.1294C19.6596 51.1912 19.05 50.5202 18.2942 50.2616C17.5398 50.0036 16.6192 50.1484 16.0208 50.8542C15.0704 51.9751 14.0702 52.9667 13.0639 53.6772C12.0565 54.3885 11.0533 54.8106 10.0944 54.8106C7.35619 54.8106 4.86674 53.3008 3.05731 50.839C1.24792 48.3773 0.125 44.9704 0.125 41.2017C0.125 37.4331 1.24792 34.0262 3.05731 31.5644C4.86674 29.1026 7.35619 27.5928 10.0944 27.5928C11.0501 27.5928 12.0498 28.0122 13.0539 28.7192C14.057 29.4255 15.0541 30.4116 16.002 31.5271C16.6014 32.2326 17.5234 32.3763 18.2788 32.1174C19.0356 31.8579 19.6461 31.1859 19.6034 30.2472C19.0501 18.0573 17.8648 5.14439 17.4873 1.20056C17.4345 0.649253 17.8959 0.191512 18.4483 0.245715ZM97.9986 82.4032L97.9993 82.3964C97.9993 82.3965 97.9993 82.3965 97.9993 82.3966L97.9986 82.4032Z" stroke="#ABABAB" stroke-width="0.25"/>
<defs>
<filter id="filter0_i_6877_1103" x="-1" y="-0.883665" width="99" height="100.884" filterUnits="userSpaceOnUse" color-interpolation-filters="sRGB">
<feFlood flood-opacity="0" result="BackgroundImageFix"/>
<feBlend mode="normal" in="SourceGraphic" in2="BackgroundImageFix" result="shape"/>
<feColorMatrix in="SourceAlpha" type="matrix" values="0 0 0 0 0 0 0 0 0 0 0 0 0 0 0 0 0 0 127 0" result="hardAlpha"/>
<feOffset dx="-1" dy="-1"/>
<feGaussianBlur stdDeviation="1"/>
<feComposite in2="hardAlpha" operator="arithmetic" k2="-1" k3="1"/>
<feColorMatrix type="matrix" values="0 0 0 0 0 0 0 0 0 0 0 0 0 0 0 0 0 0 0.95 0"/>
<feBlend mode="normal" in2="shape" result="effect1_innerShadow_6877_1103"/>
</filter>
</defs>
</svg>
