<svg width="99" height="100" viewBox="0 0 99 100" fill="none" xmlns="http://www.w3.org/2000/svg">
<g filter="url(#filter0_i_6882_1265)">
<path d="M0.00192337 47.8762C0.55224 35.5469 1.77345 22.2731 2.12512 18.5916C2.17788 18.0392 2.66616 17.6434 3.2182 17.6997C6.82763 18.0675 19.6309 19.3233 31.5258 19.8901C33.2141 19.9706 33.9544 17.5876 32.6762 16.445C30.4981 14.498 28.8045 12.3311 28.8045 10.3004C28.8045 4.61165 34.7553 0 42.096 0C49.4366 0 55.3874 4.61166 55.3874 10.3004C55.3874 12.3244 53.705 14.4836 51.5373 16.4257C50.2596 17.5703 51.0029 19.957 52.6921 19.8761C64.4448 19.3136 76.893 18.1107 80.7564 17.7211C81.3873 17.6575 81.9128 18.1809 81.8528 18.8122C81.4759 22.778 80.2905 35.7815 79.7507 47.8762C79.6728 49.6208 81.979 50.3858 83.0848 49.065C84.9691 46.8144 87.0662 45.0644 89.0314 45.0644C94.5369 45.0644 99 51.2132 99 58.7983C99 66.3833 94.5369 72.5322 89.0314 72.5322C87.0727 72.5322 84.983 70.7937 83.1034 68.5539C81.9957 67.2337 79.686 68.0017 79.7642 69.7471C80.316 82.0548 81.5042 95.1007 81.8646 98.9024C81.9204 99.491 81.4576 100 80.8663 100H3.12734C2.61327 100 2.18416 99.6199 2.13541 99.1082C1.80068 95.5947 0.577679 82.2877 0.0154991 69.7471C-0.0627481 68.0017 2.24697 67.2337 3.35471 68.5539C5.23423 70.7937 7.32392 72.5322 9.28268 72.5322C14.7882 72.5322 19.2513 66.3833 19.2513 58.7983C19.2513 51.2133 14.7882 45.0644 9.28268 45.0644C7.31743 45.0644 5.22038 46.8144 3.33604 49.065C2.23022 50.3858 -0.0759436 49.6208 0.00192337 47.8762Z" fill="#131111" fill-opacity="0.1"/>
</g>
<path d="M0.126799 47.8818C0.676969 35.5557 1.89793 22.2845 2.24955 18.6035C2.29564 18.121 2.72163 17.7747 3.20552 17.824C6.81544 18.1919 19.6214 19.448 31.5198 20.015C32.4345 20.0586 33.0834 19.4321 33.3324 18.6648C33.5809 17.8986 33.4424 16.9623 32.7596 16.3518C31.6749 15.3822 30.7152 14.3616 30.0274 13.3345C29.3391 12.3065 28.9295 11.2815 28.9295 10.3004C28.9295 4.70846 34.7928 0.125 42.096 0.125C49.3991 0.125 55.2624 4.70847 55.2624 10.3004C55.2624 11.2783 54.8555 12.2998 54.1713 13.3244C53.4876 14.3481 52.5333 15.3655 51.4538 16.3326C50.7713 16.9441 50.6338 17.8819 50.8832 18.6491C51.1331 19.4174 51.7829 20.0448 52.698 20.001C64.4541 19.4383 76.905 18.2352 80.769 17.8455C81.3213 17.7898 81.7809 18.2474 81.7284 18.8003C81.3514 22.7667 80.1658 35.7727 79.6258 47.8706C79.584 48.8078 80.1853 49.4792 80.9329 49.7382C81.6791 49.9967 82.5893 49.8514 83.1806 49.1452C84.1191 48.0243 85.1068 47.0328 86.1004 46.3224C87.0953 45.6112 88.0854 45.1894 89.0314 45.1894C91.7342 45.1894 94.1922 46.6985 95.9791 49.1604C97.766 51.6221 98.875 55.0293 98.875 58.7983C98.875 62.5673 97.766 65.9744 95.9791 68.4362C94.1922 70.8981 91.7342 72.4072 89.0314 72.4072C88.0885 72.4072 87.1018 71.9882 86.1103 71.2812C85.1199 70.575 84.1353 69.5891 83.1992 68.4735C82.6069 67.7676 81.6952 67.6234 80.9481 67.8828C80.1995 68.1427 79.5973 68.8151 79.6394 69.7527C80.1912 82.0636 81.3797 95.112 81.7401 98.9142C81.789 99.4295 81.3838 99.875 80.8663 99.875H3.12734C2.67594 99.875 2.30232 99.5422 2.25984 99.0963C1.92517 95.5833 0.702408 82.2789 0.140374 69.7415C0.10416 68.9337 0.617737 68.3494 1.28136 68.119C1.94646 67.8881 2.74355 68.02 3.25896 68.6342C4.2024 69.7585 5.2024 70.7617 6.21641 71.4848C7.2293 72.207 8.26682 72.6572 9.28268 72.6572C12.0854 72.6572 14.6117 71.0918 16.4327 68.583C18.2538 66.0741 19.3763 62.6143 19.3763 58.7983C19.3763 54.9823 18.2538 51.5224 16.4327 49.0135C14.6117 46.5047 12.0854 44.9394 9.28268 44.9394C8.26346 44.9394 7.22243 45.3926 6.20632 46.119C5.18906 46.8463 4.18604 47.8551 3.24019 48.9848C2.72566 49.5993 1.92992 49.732 1.26601 49.502C0.603601 49.2725 0.0907596 48.6892 0.126799 47.8818Z" stroke="#ABABAB" stroke-width="0.25"/>
<defs>
<filter id="filter0_i_6882_1265" x="-1" y="-1" width="100" height="101" filterUnits="userSpaceOnUse" color-interpolation-filters="sRGB">
<feFlood flood-opacity="0" result="BackgroundImageFix"/>
<feBlend mode="normal" in="SourceGraphic" in2="BackgroundImageFix" result="shape"/>
<feColorMatrix in="SourceAlpha" type="matrix" values="0 0 0 0 0 0 0 0 0 0 0 0 0 0 0 0 0 0 127 0" result="hardAlpha"/>
<feOffset dx="-1" dy="-1"/>
<feGaussianBlur stdDeviation="1"/>
<feComposite in2="hardAlpha" operator="arithmetic" k2="-1" k3="1"/>
<feColorMatrix type="matrix" values="0 0 0 0 0 0 0 0 0 0 0 0 0 0 0 0 0 0 0.95 0"/>
<feBlend mode="normal" in2="shape" result="effect1_innerShadow_6882_1265"/>
</filter>
</defs>
</svg>
